<mxfile host="Electron" modified="2024-10-03T18:46:42.098Z" agent="Mozilla/5.0 (Windows NT 10.0; Win64; x64) AppleWebKit/537.36 (KHTML, like Gecko) draw.io/23.0.2 Chrome/120.0.6099.109 Electron/28.1.0 Safari/537.36" etag="ppSTGrjooPTXGUxLSNcJ" version="23.0.2" type="device">
  <diagram name="Page-1" id="rZ3fB_Lj-nCoUW7DsIBk">
    <mxGraphModel dx="3390" dy="1115" grid="0" gridSize="10" guides="1" tooltips="1" connect="1" arrows="1" fold="1" page="0" pageScale="1" pageWidth="827" pageHeight="1169" background="none" math="0" shadow="0">
      <root>
        <mxCell id="0" />
        <mxCell id="1" parent="0" />
        <mxCell id="ZLXSIqqdMGegG49gdqzn-32" value="" style="whiteSpace=wrap;html=1;aspect=fixed;fillColor=default;" parent="1" vertex="1">
          <mxGeometry x="-511" y="432" width="799" height="799" as="geometry" />
        </mxCell>
        <mxCell id="Xz81KR9OjZhJuZ7cvo-U-1" value="Login" style="rounded=1;whiteSpace=wrap;html=1;arcSize=40;fontColor=#000000;fillColor=#ffffc0;strokeColor=#ff0000;" parent="1" vertex="1">
          <mxGeometry x="-352" y="674" width="120" height="40" as="geometry" />
        </mxCell>
        <mxCell id="Xz81KR9OjZhJuZ7cvo-U-2" value="Enters ID-Pass" style="rounded=1;whiteSpace=wrap;html=1;arcSize=40;fontColor=#000000;fillColor=#ffffc0;strokeColor=#ff0000;" parent="1" vertex="1">
          <mxGeometry x="-352" y="750" width="120" height="40" as="geometry" />
        </mxCell>
        <mxCell id="Xz81KR9OjZhJuZ7cvo-U-3" value="" style="edgeStyle=orthogonalEdgeStyle;html=1;verticalAlign=bottom;endArrow=open;endSize=8;strokeColor=#ff0000;rounded=0;exitX=0.5;exitY=1;exitDx=0;exitDy=0;entryX=0.5;entryY=0;entryDx=0;entryDy=0;" parent="1" source="Xz81KR9OjZhJuZ7cvo-U-1" target="Xz81KR9OjZhJuZ7cvo-U-2" edge="1">
          <mxGeometry relative="1" as="geometry">
            <mxPoint x="-355" y="810" as="targetPoint" />
            <mxPoint x="-355" y="764" as="sourcePoint" />
          </mxGeometry>
        </mxCell>
        <mxCell id="Xz81KR9OjZhJuZ7cvo-U-4" value="Views Dashboard" style="rounded=1;whiteSpace=wrap;html=1;arcSize=40;fontColor=#000000;fillColor=#ffffc0;strokeColor=#ff0000;" parent="1" vertex="1">
          <mxGeometry x="-344" y="1018" width="104" height="38" as="geometry" />
        </mxCell>
        <mxCell id="Xz81KR9OjZhJuZ7cvo-U-7" value="Enters Details" style="rounded=1;whiteSpace=wrap;html=1;arcSize=40;fontColor=#000000;fillColor=#ffffc0;strokeColor=#ff0000;" parent="1" vertex="1">
          <mxGeometry x="-34" y="745" width="120" height="40" as="geometry" />
        </mxCell>
        <mxCell id="Xz81KR9OjZhJuZ7cvo-U-8" value="" style="ellipse;html=1;shape=startState;fillColor=#000000;strokeColor=#ff0000;" parent="1" vertex="1">
          <mxGeometry x="-155" y="463" width="30" height="30" as="geometry" />
        </mxCell>
        <mxCell id="Xz81KR9OjZhJuZ7cvo-U-9" value="" style="edgeStyle=orthogonalEdgeStyle;html=1;verticalAlign=bottom;endArrow=open;endSize=8;strokeColor=#ff0000;rounded=0;entryX=0.5;entryY=0;entryDx=0;entryDy=0;" parent="1" source="Xz81KR9OjZhJuZ7cvo-U-8" target="Xz81KR9OjZhJuZ7cvo-U-10" edge="1">
          <mxGeometry relative="1" as="geometry">
            <mxPoint x="-203" y="528" as="targetPoint" />
          </mxGeometry>
        </mxCell>
        <mxCell id="Xz81KR9OjZhJuZ7cvo-U-10" value="Display Login &amp;amp; Signup Button on Dashboard" style="rounded=1;whiteSpace=wrap;html=1;arcSize=40;fontColor=#000000;fillColor=#ffffc0;strokeColor=#ff0000;" parent="1" vertex="1">
          <mxGeometry x="-206.75" y="521" width="133.5" height="52" as="geometry" />
        </mxCell>
        <mxCell id="Xz81KR9OjZhJuZ7cvo-U-11" value="Valid?" style="rhombus;whiteSpace=wrap;html=1;fontColor=#000000;fillColor=#ffffc0;strokeColor=#ff0000;" parent="1" vertex="1">
          <mxGeometry x="-332" y="826" width="80" height="40" as="geometry" />
        </mxCell>
        <mxCell id="Xz81KR9OjZhJuZ7cvo-U-13" value="Signup" style="rounded=1;whiteSpace=wrap;html=1;arcSize=40;fontColor=#000000;fillColor=#ffffc0;strokeColor=#ff0000;" parent="1" vertex="1">
          <mxGeometry x="-34" y="674" width="120" height="40" as="geometry" />
        </mxCell>
        <mxCell id="Xz81KR9OjZhJuZ7cvo-U-14" value="Try again or &lt;br&gt;Create an Account" style="rhombus;whiteSpace=wrap;html=1;fontColor=#000000;fillColor=#ffffc0;strokeColor=#ff0000;" parent="1" vertex="1">
          <mxGeometry x="-202.75" y="796" width="125.5" height="100" as="geometry" />
        </mxCell>
        <mxCell id="Xz81KR9OjZhJuZ7cvo-U-16" value="New User is Added" style="rounded=1;whiteSpace=wrap;html=1;arcSize=40;fontColor=#000000;fillColor=#ffffc0;strokeColor=#ff0000;" parent="1" vertex="1">
          <mxGeometry x="17" y="1031" width="120" height="40" as="geometry" />
        </mxCell>
        <mxCell id="Xz81KR9OjZhJuZ7cvo-U-19" value="" style="ellipse;html=1;shape=endState;fillColor=#000000;strokeColor=#ff0000;" parent="1" vertex="1">
          <mxGeometry x="-307" y="1109" width="30" height="30" as="geometry" />
        </mxCell>
        <mxCell id="Xz81KR9OjZhJuZ7cvo-U-23" value="" style="edgeStyle=orthogonalEdgeStyle;html=1;verticalAlign=bottom;endArrow=open;endSize=8;strokeColor=#ff0000;rounded=0;entryX=0.5;entryY=0;entryDx=0;entryDy=0;" parent="1" source="Xz81KR9OjZhJuZ7cvo-U-10" target="vo6r0UOSp1VTLgmbMCyS-1" edge="1">
          <mxGeometry relative="1" as="geometry">
            <mxPoint x="-331" y="546" as="targetPoint" />
          </mxGeometry>
        </mxCell>
        <mxCell id="vo6r0UOSp1VTLgmbMCyS-1" value="Choice" style="rhombus;whiteSpace=wrap;html=1;fontColor=#000000;fillColor=#ffffc0;strokeColor=#ff0000;" parent="1" vertex="1">
          <mxGeometry x="-181.5" y="615" width="83" height="46" as="geometry" />
        </mxCell>
        <mxCell id="vo6r0UOSp1VTLgmbMCyS-2" value="" style="edgeStyle=orthogonalEdgeStyle;html=1;verticalAlign=bottom;endArrow=open;endSize=8;strokeColor=#ff0000;rounded=0;entryX=0.5;entryY=0;entryDx=0;entryDy=0;exitX=1;exitY=0.5;exitDx=0;exitDy=0;" parent="1" source="vo6r0UOSp1VTLgmbMCyS-1" target="Xz81KR9OjZhJuZ7cvo-U-13" edge="1">
          <mxGeometry relative="1" as="geometry">
            <mxPoint x="-130" y="625" as="targetPoint" />
            <mxPoint x="-130" y="576" as="sourcePoint" />
          </mxGeometry>
        </mxCell>
        <mxCell id="ZLXSIqqdMGegG49gdqzn-1" value="" style="edgeStyle=orthogonalEdgeStyle;html=1;verticalAlign=bottom;endArrow=open;endSize=8;strokeColor=#ff0000;rounded=0;entryX=0.5;entryY=0;entryDx=0;entryDy=0;exitX=0;exitY=0.5;exitDx=0;exitDy=0;" parent="1" source="vo6r0UOSp1VTLgmbMCyS-1" target="Xz81KR9OjZhJuZ7cvo-U-1" edge="1">
          <mxGeometry relative="1" as="geometry">
            <mxPoint x="-1" y="648" as="targetPoint" />
            <mxPoint x="-88" y="648" as="sourcePoint" />
          </mxGeometry>
        </mxCell>
        <mxCell id="ZLXSIqqdMGegG49gdqzn-2" value="" style="edgeStyle=orthogonalEdgeStyle;html=1;verticalAlign=bottom;endArrow=open;endSize=8;strokeColor=#ff0000;rounded=0;exitX=0.5;exitY=1;exitDx=0;exitDy=0;entryX=0.5;entryY=0;entryDx=0;entryDy=0;" parent="1" source="Xz81KR9OjZhJuZ7cvo-U-2" target="Xz81KR9OjZhJuZ7cvo-U-11" edge="1">
          <mxGeometry relative="1" as="geometry">
            <mxPoint x="-355" y="705" as="targetPoint" />
            <mxPoint x="-355" y="668" as="sourcePoint" />
          </mxGeometry>
        </mxCell>
        <mxCell id="ZLXSIqqdMGegG49gdqzn-3" value="" style="edgeStyle=orthogonalEdgeStyle;html=1;verticalAlign=bottom;endArrow=open;endSize=8;strokeColor=#ff0000;rounded=0;entryX=0;entryY=0.5;entryDx=0;entryDy=0;exitX=1;exitY=0.5;exitDx=0;exitDy=0;" parent="1" source="Xz81KR9OjZhJuZ7cvo-U-11" target="Xz81KR9OjZhJuZ7cvo-U-14" edge="1">
          <mxGeometry relative="1" as="geometry">
            <mxPoint x="-224" y="846" as="targetPoint" />
            <mxPoint x="-153" y="865" as="sourcePoint" />
          </mxGeometry>
        </mxCell>
        <mxCell id="ZLXSIqqdMGegG49gdqzn-4" value="" style="edgeStyle=orthogonalEdgeStyle;html=1;verticalAlign=bottom;endArrow=open;endSize=8;strokeColor=#ff0000;rounded=0;exitX=0.5;exitY=1;exitDx=0;exitDy=0;entryX=0.5;entryY=0;entryDx=0;entryDy=0;" parent="1" source="Xz81KR9OjZhJuZ7cvo-U-11" target="VAmNz21L5mMga8rhSbjg-10" edge="1">
          <mxGeometry relative="1" as="geometry">
            <mxPoint x="-292" y="907.5" as="targetPoint" />
            <mxPoint x="-282" y="800" as="sourcePoint" />
          </mxGeometry>
        </mxCell>
        <mxCell id="ZLXSIqqdMGegG49gdqzn-5" value="" style="edgeStyle=orthogonalEdgeStyle;html=1;verticalAlign=bottom;endArrow=open;endSize=8;strokeColor=#ff0000;rounded=0;exitX=0.5;exitY=1;exitDx=0;exitDy=0;entryX=0.5;entryY=0;entryDx=0;entryDy=0;" parent="1" source="Xz81KR9OjZhJuZ7cvo-U-4" target="Xz81KR9OjZhJuZ7cvo-U-19" edge="1">
          <mxGeometry relative="1" as="geometry">
            <mxPoint x="-282" y="1024" as="targetPoint" />
            <mxPoint x="-282" y="994" as="sourcePoint" />
          </mxGeometry>
        </mxCell>
        <mxCell id="ZLXSIqqdMGegG49gdqzn-17" value="Submit" style="rounded=1;whiteSpace=wrap;html=1;arcSize=40;fontColor=#000000;fillColor=#ffffc0;strokeColor=#ff0000;" parent="1" vertex="1">
          <mxGeometry x="-34" y="900" width="120" height="40" as="geometry" />
        </mxCell>
        <mxCell id="ZLXSIqqdMGegG49gdqzn-18" value="" style="edgeStyle=orthogonalEdgeStyle;html=1;verticalAlign=bottom;endArrow=open;endSize=8;strokeColor=#ff0000;rounded=0;entryX=0;entryY=0.5;entryDx=0;entryDy=0;exitX=1;exitY=0.5;exitDx=0;exitDy=0;" parent="1" source="Xz81KR9OjZhJuZ7cvo-U-14" target="Xz81KR9OjZhJuZ7cvo-U-13" edge="1">
          <mxGeometry relative="1" as="geometry">
            <mxPoint x="-193" y="856" as="targetPoint" />
            <mxPoint x="-242" y="856" as="sourcePoint" />
            <Array as="points">
              <mxPoint x="-60" y="846" />
              <mxPoint x="-60" y="694" />
            </Array>
          </mxGeometry>
        </mxCell>
        <mxCell id="ZLXSIqqdMGegG49gdqzn-19" value="" style="edgeStyle=orthogonalEdgeStyle;html=1;verticalAlign=bottom;endArrow=open;endSize=8;strokeColor=#ff0000;rounded=0;exitX=0.5;exitY=1;exitDx=0;exitDy=0;entryX=0.5;entryY=0;entryDx=0;entryDy=0;" parent="1" source="Xz81KR9OjZhJuZ7cvo-U-13" target="Xz81KR9OjZhJuZ7cvo-U-7" edge="1">
          <mxGeometry relative="1" as="geometry">
            <mxPoint x="-282" y="760" as="targetPoint" />
            <mxPoint x="-282" y="724" as="sourcePoint" />
          </mxGeometry>
        </mxCell>
        <mxCell id="ZLXSIqqdMGegG49gdqzn-21" value="" style="edgeStyle=orthogonalEdgeStyle;html=1;verticalAlign=bottom;endArrow=open;endSize=8;strokeColor=#ff0000;rounded=0;exitX=0.5;exitY=1;exitDx=0;exitDy=0;entryX=0.499;entryY=0.249;entryDx=0;entryDy=0;entryPerimeter=0;" parent="1" source="ZLXSIqqdMGegG49gdqzn-17" target="ZLXSIqqdMGegG49gdqzn-22" edge="1">
          <mxGeometry relative="1" as="geometry">
            <mxPoint x="-18.75" y="911" as="targetPoint" />
            <mxPoint x="-18.75" y="875" as="sourcePoint" />
          </mxGeometry>
        </mxCell>
        <mxCell id="ZLXSIqqdMGegG49gdqzn-22" value="" style="shape=line;html=1;strokeWidth=6;strokeColor=#ff0000;" parent="1" vertex="1">
          <mxGeometry x="-73.25" y="982" width="200" height="10" as="geometry" />
        </mxCell>
        <mxCell id="ZLXSIqqdMGegG49gdqzn-23" value="" style="edgeStyle=orthogonalEdgeStyle;html=1;verticalAlign=bottom;endArrow=open;endSize=8;strokeColor=#ff0000;rounded=0;entryX=0.5;entryY=0;entryDx=0;entryDy=0;exitX=0.75;exitY=0.5;exitDx=0;exitDy=0;exitPerimeter=0;" parent="1" source="ZLXSIqqdMGegG49gdqzn-22" target="Xz81KR9OjZhJuZ7cvo-U-16" edge="1">
          <mxGeometry relative="1" as="geometry">
            <mxPoint x="113" y="1062" as="targetPoint" />
            <mxPoint x="109.80459770114953" y="992" as="sourcePoint" />
          </mxGeometry>
        </mxCell>
        <mxCell id="ZLXSIqqdMGegG49gdqzn-28" value="" style="html=1;verticalAlign=bottom;endArrow=open;endSize=8;strokeColor=#ff0000;rounded=0;entryX=1;entryY=0.5;entryDx=0;entryDy=0;exitX=0.25;exitY=0.5;exitDx=0;exitDy=0;exitPerimeter=0;edgeStyle=orthogonalEdgeStyle;" parent="1" source="ZLXSIqqdMGegG49gdqzn-22" target="Xz81KR9OjZhJuZ7cvo-U-4" edge="1">
          <mxGeometry relative="1" as="geometry">
            <mxPoint x="87" y="969" as="targetPoint" />
            <mxPoint x="87" y="917" as="sourcePoint" />
            <Array as="points">
              <mxPoint x="-23" y="1037" />
            </Array>
          </mxGeometry>
        </mxCell>
        <mxCell id="ZLXSIqqdMGegG49gdqzn-29" value="" style="edgeStyle=orthogonalEdgeStyle;html=1;verticalAlign=bottom;endArrow=open;endSize=8;strokeColor=#ff0000;rounded=0;exitX=0.5;exitY=1;exitDx=0;exitDy=0;entryX=0.5;entryY=0;entryDx=0;entryDy=0;" parent="1" source="Xz81KR9OjZhJuZ7cvo-U-16" target="ZLXSIqqdMGegG49gdqzn-30" edge="1">
          <mxGeometry relative="1" as="geometry">
            <mxPoint x="87" y="1039" as="targetPoint" />
            <mxPoint x="77" y="1089" as="sourcePoint" />
          </mxGeometry>
        </mxCell>
        <mxCell id="ZLXSIqqdMGegG49gdqzn-30" value="" style="ellipse;html=1;shape=endState;fillColor=#000000;strokeColor=#ff0000;" parent="1" vertex="1">
          <mxGeometry x="62" y="1109" width="30" height="30" as="geometry" />
        </mxCell>
        <mxCell id="ZLXSIqqdMGegG49gdqzn-31" value="" style="edgeStyle=orthogonalEdgeStyle;html=1;verticalAlign=bottom;endArrow=open;endSize=8;strokeColor=#ff0000;rounded=0;entryX=1;entryY=0.5;entryDx=0;entryDy=0;exitX=0.5;exitY=0;exitDx=0;exitDy=0;" parent="1" source="Xz81KR9OjZhJuZ7cvo-U-14" target="Xz81KR9OjZhJuZ7cvo-U-2" edge="1">
          <mxGeometry relative="1" as="geometry">
            <mxPoint x="-193" y="856" as="targetPoint" />
            <mxPoint x="-242" y="856" as="sourcePoint" />
          </mxGeometry>
        </mxCell>
        <mxCell id="VAmNz21L5mMga8rhSbjg-1" value="Valid?" style="rhombus;whiteSpace=wrap;html=1;fontColor=#000000;fillColor=#ffffc0;strokeColor=#ff0000;" vertex="1" parent="1">
          <mxGeometry x="-14" y="826" width="80" height="40" as="geometry" />
        </mxCell>
        <mxCell id="VAmNz21L5mMga8rhSbjg-2" value="" style="edgeStyle=orthogonalEdgeStyle;html=1;verticalAlign=bottom;endArrow=open;endSize=8;strokeColor=#ff0000;rounded=0;exitX=0.5;exitY=1;exitDx=0;exitDy=0;entryX=0.5;entryY=0;entryDx=0;entryDy=0;" edge="1" target="VAmNz21L5mMga8rhSbjg-1" parent="1" source="Xz81KR9OjZhJuZ7cvo-U-7">
          <mxGeometry relative="1" as="geometry">
            <mxPoint x="90" y="693" as="targetPoint" />
            <mxPoint x="153" y="778" as="sourcePoint" />
          </mxGeometry>
        </mxCell>
        <mxCell id="VAmNz21L5mMga8rhSbjg-3" value="" style="edgeStyle=orthogonalEdgeStyle;html=1;verticalAlign=bottom;endArrow=open;endSize=8;strokeColor=#ff0000;rounded=0;entryX=1;entryY=0.5;entryDx=0;entryDy=0;exitX=1;exitY=0.5;exitDx=0;exitDy=0;" edge="1" source="VAmNz21L5mMga8rhSbjg-1" parent="1" target="Xz81KR9OjZhJuZ7cvo-U-7">
          <mxGeometry relative="1" as="geometry">
            <mxPoint x="242" y="834" as="targetPoint" />
            <mxPoint x="292" y="853" as="sourcePoint" />
            <Array as="points">
              <mxPoint x="133" y="846" />
              <mxPoint x="133" y="765" />
            </Array>
          </mxGeometry>
        </mxCell>
        <mxCell id="VAmNz21L5mMga8rhSbjg-4" value="" style="edgeStyle=orthogonalEdgeStyle;html=1;verticalAlign=bottom;endArrow=open;endSize=8;strokeColor=#ff0000;rounded=0;exitX=0.5;exitY=1;exitDx=0;exitDy=0;entryX=0.5;entryY=0;entryDx=0;entryDy=0;" edge="1" source="VAmNz21L5mMga8rhSbjg-1" parent="1" target="ZLXSIqqdMGegG49gdqzn-17">
          <mxGeometry relative="1" as="geometry">
            <mxPoint x="152.7" y="910" as="targetPoint" />
            <mxPoint x="152.7" y="858" as="sourcePoint" />
          </mxGeometry>
        </mxCell>
        <mxCell id="VAmNz21L5mMga8rhSbjg-10" value="OTP Verifed?" style="rhombus;whiteSpace=wrap;html=1;fontColor=#000000;fillColor=#ffffc0;strokeColor=#ff0000;" vertex="1" parent="1">
          <mxGeometry x="-338.5" y="920" width="93" height="50" as="geometry" />
        </mxCell>
        <mxCell id="VAmNz21L5mMga8rhSbjg-11" value="no" style="html=1;align=left;verticalAlign=bottom;endArrow=open;endSize=8;strokeColor=#ff0000;rounded=0;entryX=0;entryY=0.5;entryDx=0;entryDy=0;exitX=1;exitY=0.5;exitDx=0;exitDy=0;edgeStyle=orthogonalEdgeStyle;" edge="1" source="VAmNz21L5mMga8rhSbjg-10" parent="1" target="VAmNz21L5mMga8rhSbjg-14">
          <mxGeometry x="-1" relative="1" as="geometry">
            <mxPoint x="-152" y="937" as="targetPoint" />
          </mxGeometry>
        </mxCell>
        <mxCell id="VAmNz21L5mMga8rhSbjg-12" value="yes" style="edgeStyle=orthogonalEdgeStyle;html=1;align=left;verticalAlign=top;endArrow=open;endSize=8;strokeColor=#ff0000;rounded=0;entryX=0.5;entryY=0;entryDx=0;entryDy=0;" edge="1" source="VAmNz21L5mMga8rhSbjg-10" parent="1" target="Xz81KR9OjZhJuZ7cvo-U-4">
          <mxGeometry x="-1" relative="1" as="geometry">
            <mxPoint x="-292" y="1017" as="targetPoint" />
          </mxGeometry>
        </mxCell>
        <mxCell id="VAmNz21L5mMga8rhSbjg-14" value="Invailed OTP" style="rounded=1;whiteSpace=wrap;html=1;arcSize=40;fontColor=#000000;fillColor=#ffffc0;strokeColor=#ff0000;" vertex="1" parent="1">
          <mxGeometry x="-198" y="928" width="96.25" height="34" as="geometry" />
        </mxCell>
        <mxCell id="VAmNz21L5mMga8rhSbjg-15" value="" style="html=1;verticalAlign=bottom;endArrow=open;endSize=8;strokeColor=#ff0000;rounded=0;exitX=0.5;exitY=0;exitDx=0;exitDy=0;entryX=1;entryY=0;entryDx=0;entryDy=0;edgeStyle=orthogonalEdgeStyle;" edge="1" parent="1" source="VAmNz21L5mMga8rhSbjg-14" target="VAmNz21L5mMga8rhSbjg-10">
          <mxGeometry relative="1" as="geometry">
            <mxPoint x="37" y="994" as="targetPoint" />
            <mxPoint x="36" y="950" as="sourcePoint" />
            <Array as="points">
              <mxPoint x="-150" y="918" />
              <mxPoint x="-269" y="918" />
            </Array>
          </mxGeometry>
        </mxCell>
      </root>
    </mxGraphModel>
  </diagram>
</mxfile>
